# xmcd
#
# Track frame offsets:
#	150
#	21639
#	39335
#	58772
#	80743
#	103084
#	121771
#	136671
#	155866
#	163615
#	181513
#	200807
#	217259
#
# Disc length: 3069 seconds
#
# Revision: 0
# Processed by: cddbd v1.5.1PL2 Copyright (c) Steve Scherf et al.
# Submitted via: audiograbber 1.81.03
#
DISCID=bb0bfb0d
DTITLE=Various Artist - ROMEO AND JULIET
DYEAR=1900
DGENRE=Ballad
TTITLE0=Garbage - Crush
TTITLE1=Everclear - Local God
TTITLE2=Gavin Friday - Angel
TTITLE3=One Inch Punch - Pretty Piece of Flesh
TTITLE4=Des'Ree - Kissing You
TTITLE5=Butthole Surfers - Whatever
TTITLE6=The Cardigans - LoveFool
TTITLE7=Kym Mazelle - Young Hearts Run Free
TTITLE8=Quindon Tarver - Everybody's Free
TTITLE9=Mundy - To You I Bestow
TTITLE10=RadioHead - Talk Show Host
TTITLE11=Stina Nordenstam - Little Star
TTITLE12=The Wannadies - You and Me Song
EXTD=
EXTT0=
EXTT1=
EXTT2=
EXTT3=
EXTT4=
EXTT5=
EXTT6=
EXTT7=
EXTT8=
EXTT9=
EXTT10=
EXTT11=
EXTT12=
PLAYORDER=
